<?xml version="1.0" encoding="UTF-8"?>
<svg id="Layer_2" data-name="Layer 2" xmlns="http://www.w3.org/2000/svg" width="750.71" height="735.61" viewBox="0 0 750.71 735.61">
  <defs>
    <style>
      .cls-1 {
        fill: #fff;
      }
    </style>
  </defs>
  <g id="Layer_1-2" data-name="Layer 1">
    <g>
      <polygon class="cls-1" points="677.81 322.62 586.92 698.91 466.92 735.61 471.98 386.04 271.33 99.92 390.92 62.98 677.81 322.62"/>
      <path class="cls-1" d="M404.13,0C212.71,0,57.53,155.18,57.53,346.59c0,11.39.55,22.66,1.63,33.77-10.56,7.39-19.65,14.43-27.23,21.09-10.93,9.61-18.77,18.44-23.98,26.99-10.38,17.07-8.73,30.95-5.52,39.59,3.27,8.82,11.3,20.6,30.94,26.68,9.83,3.04,21.94,4.52,37.05,4.52,6.73,0,14.07-.31,22-.9,56.27,115.37,174.7,194.85,311.7,194.85,12.22,0,24.3-.63,36.2-1.87l.4-27.42c-12.07,1.37-24.28,2.06-36.59,2.06-43.13,0-84.95-8.44-124.3-25.09-38.02-16.08-72.18-39.12-101.52-68.45-22.95-22.95-42.03-48.83-56.95-77.22,31.02-4.25,68.23-11.81,110.23-22.44,64.74-16.39,138.05-39.35,212.88-66.65l.17-11.64-9.72-13.86c-131.53,47.98-250.67,79.64-325.71,88.72-10.17-24.38-17.18-49.71-21.01-75.69-1.48-10.03-2.48-20.16-3-30.37-.28-5.53-.42-11.08-.42-16.66,0-43.13,8.44-84.94,25.09-124.3,16.08-38.03,39.11-72.18,68.45-101.52,29.34-29.33,63.5-52.37,101.52-68.45,39.36-16.64,81.18-25.09,124.3-25.09s84.94,8.44,124.3,25.09c38.02,16.08,72.18,39.12,101.52,68.45s52.37,63.5,68.46,101.52c16.64,39.36,25.08,81.17,25.08,124.3s-8.44,84.94-25.08,124.3c-11.99,28.34-27.83,54.52-47.27,78.17l-12.8,53.02c69.08-63.35,112.39-154.36,112.39-255.49C750.71,155.18,595.54,0,404.13,0ZM27.97,458.56c-4.07-10.95,9.02-27.55,35.52-47.67,3.94,21.02,9.79,41.38,17.34,60.88-30.18,1.33-49.01-2.83-52.86-13.21Z"/>
    </g>
  </g>
</svg>